<svg width="152" height="152" viewBox="0 0 152 152" fill="none" xmlns="http://www.w3.org/2000/svg">
<circle cx="76" cy="76" r="75.5" stroke="#F6C142"/>
<path fill-rule="evenodd" clip-rule="evenodd" d="M65.88 102.419V104.884H65.8793C65.8796 105.197 65.9051 105.51 65.9557 105.82H39.777C38.7752 105.818 37.815 105.419 37.1069 104.709C36.3989 104 36.0008 103.039 36 102.036V51.036C36.0009 50.0335 36.399 49.0722 37.1071 48.363C37.8151 47.6538 38.7753 47.2546 39.777 47.2529H47.0065V46.7832C47.0074 45.7805 47.4057 44.8191 48.1139 44.1099C48.8221 43.4007 49.7824 43.0015 50.7843 43H68.465C69.4668 43.0017 70.4269 43.401 71.135 44.1102C71.843 44.8194 72.2411 45.7806 72.242 46.7832V47.2529H79.4723C80.4738 47.2553 81.4336 47.6548 82.1415 48.3638C82.8494 49.0728 83.2477 50.0337 83.2493 51.036V67.369C81.8446 68.0254 80.6639 69.081 79.8545 70.4044V50.6536H72.242V53.5494C72.2409 54.5516 71.8426 55.5124 71.1345 56.2211C70.4265 56.9297 69.4664 57.3284 68.465 57.3295H50.7835C49.7821 57.3284 48.8221 56.9297 48.114 56.2211C47.4059 55.5124 47.0076 54.5516 47.0065 53.5494V50.6536H39.3948V102.419H65.88ZM50.4021 46.4007V53.5494V53.9318H68.8499V53.5494L68.8468 46.7832V46.4007H50.4021ZM50.5169 64.381L46.4591 68.1554L46.122 67.818C45.7323 67.4275 45.2036 67.2079 44.6521 67.2075C44.1006 67.2071 43.5716 67.4259 43.1814 67.8159C42.7911 68.2059 42.5717 68.7351 42.5713 69.287C42.5709 69.839 42.7896 70.3684 43.1793 70.759L44.9346 72.5161C45.3149 72.8979 45.8286 73.1168 46.3673 73.1266C46.9059 73.1364 47.4272 72.9363 47.8211 72.5685L53.3435 67.4314C53.7474 67.056 53.9859 66.5354 54.0063 65.9842C54.0268 65.4329 53.8276 64.896 53.4526 64.4917C53.0776 64.0875 52.5574 63.8488 52.0066 63.8283C51.4558 63.8079 50.9194 64.0072 50.5154 64.3825L50.5169 64.381ZM50.5173 77.089L46.4594 80.8661L46.1223 80.5257C45.9298 80.3291 45.7003 80.1726 45.447 80.0653C45.1937 79.9581 44.9216 79.9021 44.6466 79.9008C44.3716 79.8994 44.099 79.9526 43.8446 80.0573C43.5903 80.1619 43.3591 80.3161 43.1647 80.5107C42.9702 80.7054 42.8162 80.9367 42.7116 81.1912C42.607 81.4458 42.5538 81.7186 42.5552 81.9939C42.5566 82.2691 42.6125 82.5414 42.7197 82.7949C42.8268 83.0484 42.9832 83.2781 43.1796 83.4708L44.9349 85.228C45.3153 85.6097 45.829 85.8286 46.3676 85.8384C46.9062 85.8482 47.4275 85.6481 47.8215 85.2804L53.3438 80.1432C53.742 79.7662 53.9756 79.2473 53.9936 78.699C54.0117 78.1507 53.8128 77.6175 53.4403 77.2151C53.0678 76.8127 52.5516 76.5737 52.004 76.55C51.4564 76.5264 50.9216 76.7199 50.5158 77.0886L50.5173 77.089ZM46.4591 93.3907L50.517 89.6121L50.5154 89.6136C50.716 89.4278 50.9512 89.2833 51.2076 89.1884C51.4639 89.0935 51.7365 89.0501 52.0096 89.0606C52.2827 89.0712 52.5511 89.1354 52.7994 89.2498C53.0477 89.3641 53.2711 89.5263 53.4568 89.727C53.6425 89.9277 53.7869 90.1631 53.8817 90.4197C53.9765 90.6763 54.0199 90.949 54.0093 91.2224C53.9988 91.4958 53.9346 91.7644 53.8204 92.0129C53.7061 92.2614 53.5441 92.485 53.3435 92.6708L47.8211 97.8084C47.4272 98.1766 46.9055 98.3768 46.3666 98.3664C45.8277 98.3561 45.3141 98.136 44.9346 97.7529L43.1793 95.9958C42.9861 95.8024 42.8328 95.5728 42.7282 95.3202C42.6236 95.0675 42.5698 94.7967 42.5698 94.5232C42.5698 94.2497 42.6236 93.9789 42.7282 93.7262C42.8328 93.4736 42.9861 93.244 43.1793 93.0506C43.3725 92.8572 43.6019 92.7038 43.8543 92.5992C44.1068 92.4945 44.3774 92.4407 44.6506 92.4407C44.9239 92.4407 45.1945 92.4945 45.4469 92.5992C45.6994 92.7038 45.9288 92.8572 46.122 93.0506L46.4591 93.3907ZM59.6029 66.3955C59.0558 66.4029 58.5337 66.6256 58.1495 67.0154C57.7652 67.4052 57.5498 67.9308 57.5498 68.4783C57.5498 69.0259 57.7652 69.5514 58.1495 69.9412C58.5337 70.331 59.0558 70.5537 59.6029 70.5612H72.7347C73.2817 70.5537 73.8039 70.331 74.1881 69.9412C74.5724 69.5514 74.7878 69.0259 74.7878 68.4783C74.7878 67.9308 74.5724 67.4052 74.1881 67.0154C73.8039 66.6256 73.2817 66.4029 72.7347 66.3955H59.6029ZM102.944 88.704C103.495 88.6714 104.041 88.647 104.593 88.647C109.605 88.647 115.001 90.1 115.001 93.2904V104.931C115.001 108.089 109.605 109.527 104.593 109.527C101.138 109.527 96.635 108.784 94.9205 106.718C93.0033 106.909 91.0695 106.852 89.167 106.547C87.5198 108.703 82.9196 109.479 79.3452 109.479C74.3322 109.479 68.9375 108.041 68.9375 104.884V95.9775V91.8149V83.2666V81.6968V81.6961C68.9375 81.5484 68.9494 81.4044 68.9725 81.2641C69.4424 78.4077 74.5672 77.1012 79.3452 77.1012C80.2911 77.1054 81.2361 77.16 82.1762 77.2645V73.2268L82.1763 73.2218C82.1771 72.7688 82.2867 72.3508 82.4886 71.9671C82.6646 71.6165 82.9087 71.3047 83.2067 71.0499C85.0107 69.368 88.9003 68.5833 92.5836 68.5833C97.5736 68.5833 102.944 70.0363 102.944 73.2266V88.704ZM71.9754 93.1712V91.8149H71.975V90.8489C73.8232 91.6292 76.4414 92.0679 79.3452 92.0679V92.066C82.2027 92.066 84.8691 91.6174 86.7149 90.8444V93.1706C86.5137 93.4489 85.4153 94.1137 83.2493 94.5172V94.5151C82.1284 94.7153 80.993 94.8231 79.8545 94.8376V94.8411C79.688 94.8443 79.5182 94.8459 79.3452 94.8459C77.4196 94.8459 75.9011 94.6428 74.7536 94.3728C74.7538 94.3721 74.754 94.3714 74.7541 94.3707C73.3865 94.0485 72.5426 93.632 72.1686 93.352C72.0755 93.282 72.0114 93.2206 71.9754 93.1712ZM79.3452 83.2998C77.0801 83.2998 75.3781 83.019 74.1807 82.6789L74.1816 82.678C72.9919 82.3397 72.2995 81.9436 72.0488 81.7068C72.0419 81.7002 72.0352 81.6937 72.0289 81.6873C72.2923 81.4234 73.1594 80.9369 74.7175 80.5705L74.7169 80.5688C75.868 80.2983 77.3979 80.0938 79.3452 80.0938C79.5182 80.0938 79.688 80.0954 79.8545 80.0986V80.1013C80.993 80.1158 82.1285 80.2241 83.2493 80.4249V80.4225C85.2463 80.7945 86.3356 81.3886 86.6511 81.6968C86.3356 82.005 85.2462 82.5991 83.2493 82.971V82.9697C82.5687 83.0917 81.8827 83.1795 81.1938 83.2329C80.8794 83.2565 80.5506 83.2745 80.2073 83.2858C80.0897 83.2893 79.9721 83.2918 79.8545 83.2933V83.295C79.688 83.2982 79.5182 83.2998 79.3452 83.2998ZM89.7054 100.799V103.624C90.6375 103.737 91.5769 103.777 92.5152 103.743C93.1198 103.743 93.6529 103.718 94.1856 103.684V100.906C93.6364 100.939 93.0907 100.963 92.5366 100.963C91.5906 100.959 90.6456 100.904 89.7054 100.799ZM92.5855 71.6244C88.0117 71.6244 85.7209 72.7554 85.234 73.2259C85.7251 73.6975 88.0239 74.8304 92.5855 74.8304C97.1329 74.8304 99.4107 73.6971 99.8914 73.2274C99.4107 72.7577 97.1333 71.6244 92.5855 71.6244ZM99.9553 82.3753C98.1098 83.1476 95.4437 83.5962 92.5855 83.5962C91.6387 83.5977 90.693 83.5349 89.7547 83.4084V86.2124C90.6941 86.3242 91.6395 86.379 92.5855 86.3765C97.3859 86.3765 99.6572 85.1136 99.9553 84.7012V82.3753ZM92.5855 77.8245C89.7307 77.8245 87.0455 77.3732 85.1683 76.5967L85.1664 77.7962C87.2993 78.3611 88.7412 79.2458 89.3752 80.378C90.4376 80.5391 91.5111 80.6148 92.5855 80.6044C97.3855 80.6044 99.6568 79.3414 99.9553 78.9295V76.6032C98.1094 77.3759 95.4403 77.8245 92.5855 77.8245ZM92.5385 95.1909C91.5925 95.1866 90.6475 95.1319 89.7073 95.0272V97.8071C90.6469 97.9185 91.5923 97.9732 92.5385 97.9708C93.122 97.9708 93.6643 97.9448 94.1875 97.9123V95.1339C93.6361 95.1664 93.0899 95.1909 92.5385 95.1909ZM89.7547 91.9865C90.6941 92.0983 91.6395 92.1532 92.5855 92.1509V92.1486C93.2661 92.1486 93.8883 92.1165 94.5063 92.0783C95.3639 90.3253 98.0799 89.4705 99.9553 89.0796V88.1471C98.1094 88.9197 95.4434 89.3683 92.5855 89.3683C91.6396 89.3642 90.6947 89.3094 89.7547 89.2043V91.9865ZM104.595 91.687C100.081 91.687 97.8029 92.8038 97.2992 93.2796C97.8281 93.7616 100.157 94.8926 104.642 94.8926C109.184 94.8926 111.461 93.7623 111.946 93.2915C111.456 92.8199 109.157 91.687 104.595 91.687ZM104.595 103.657C101.721 103.657 99.1011 103.218 97.225 102.433V104.762C97.5247 105.175 99.7944 106.438 104.595 106.438C109.404 106.438 111.669 105.19 111.965 104.782V102.436C110.119 103.209 107.453 103.657 104.595 103.657ZM112.01 96.6654C110.164 97.438 107.499 97.8867 104.64 97.8867V97.8852C101.766 97.8852 99.1462 97.4457 97.2705 96.6612V98.9917C97.5701 99.4044 99.8402 100.667 104.64 100.667C109.44 100.667 111.712 99.4036 112.01 98.9917V96.6654ZM71.9751 104.763V102.434C73.8512 103.219 76.471 103.658 79.3449 103.658C79.5724 103.658 79.7998 103.655 80.0271 103.649C82.6241 103.584 85.0168 103.147 86.7149 102.436V104.763C86.4165 105.175 84.1452 106.438 79.3452 106.438C77.0831 106.438 75.3829 106.158 74.186 105.818H74.1951C73.1429 105.519 72.4741 105.176 72.1577 104.936C72.0702 104.869 72.0096 104.81 71.9751 104.763ZM83.2495 100.328C85.384 99.9242 86.4679 99.2671 86.6679 98.9913V96.6635C84.8221 97.4361 82.1556 97.8848 79.2982 97.8848C76.4238 97.8848 73.8037 97.4453 71.9276 96.6608V98.9913C72.228 99.404 74.4985 100.666 79.2982 100.666C79.4876 100.666 79.6731 100.664 79.8547 100.66V100.656C80.9935 100.639 82.129 100.529 83.2495 100.325V100.328ZM86.7149 85.0738C84.8691 85.846 82.203 86.2947 79.3452 86.2947V86.2935C76.4709 86.2935 73.8511 85.854 71.975 85.0696V87.4001C72.275 87.8128 74.5455 89.075 79.3452 89.075C79.5182 89.075 79.688 89.0733 79.8545 89.0701V89.0644C80.993 89.0501 82.1284 88.9422 83.2493 88.7419V88.7461C85.415 88.3426 86.5134 87.6778 86.7149 87.4001V85.0738ZM66.5032 79.1079C66.09 79.908 65.8763 80.7962 65.8803 81.6969V83.2674H59.6001C59.3248 83.2711 59.0515 83.2201 58.7962 83.1173C58.5408 83.0144 58.3083 82.8618 58.1124 82.6683C57.9164 82.4748 57.7608 82.2443 57.6546 81.9901C57.5483 81.7359 57.4937 81.4631 57.4937 81.1876C57.4937 80.9121 57.5483 80.6393 57.6546 80.3852C57.7608 80.131 57.9164 79.9004 58.1124 79.7069C58.3083 79.5134 58.5408 79.3608 58.7962 79.258C59.0515 79.1552 59.3248 79.1041 59.6001 79.1079H66.5032ZM65.8798 91.8142H59.5996C59.0481 91.8142 58.5191 92.0335 58.1291 92.4238C57.7391 92.8141 57.52 93.3435 57.52 93.8955C57.52 94.4475 57.7391 94.9769 58.1291 95.3672C58.5191 95.7575 59.0481 95.9768 59.5996 95.9768H65.8798V91.8142Z" fill="#F6C142"/>
</svg>
