<?xml version="1.0" encoding="utf-8"?>
<!-- Generator: Adobe Illustrator 27.2.0, SVG Export Plug-In . SVG Version: 6.00 Build 0)  -->
<svg version="1.1" id="Calque_1" xmlns="http://www.w3.org/2000/svg" xmlns:xlink="http://www.w3.org/1999/xlink" x="0px" y="0px"
	 viewBox="0 0 88 88" style="enable-background:new 0 0 88 88;" xml:space="preserve">
<style type="text/css">
	.st0{fill:#FFFFFF;}
	.st1{fill:#F6C142;}
</style>
<circle class="st0" cx="44" cy="44" r="44"/>
<g>
	<path class="st1" d="M63.8,14.4H49.1c-8.5,0-15.7,6-17.5,14h-7c-10,0-18.2,8.2-18.2,18.2c0,8,5.2,14.9,12.4,17.3v8.7
		c0,0.8,1,1.2,1.5,0.6l8.4-8.4h12.3c8.8,0,16.2-6.2,17.8-14.6h0.5l6.9,6.9c0.5,0.5,1.1,0.8,1.8,0.7c0.3,0,0.6-0.1,0.9-0.2
		c0.9-0.4,1.5-1.3,1.5-2.3v-6.6c6.7-2.8,11.1-9.3,11.1-16.6C81.7,22.5,73.6,14.4,63.8,14.4L63.8,14.4z M27.6,49h-4.5v-4.5h4.5V49z
		 M35.1,49h-4.5v-4.5h4.5V49z M42.5,49h-4.5v-4.5l4.5,0V49z M68.4,46.1l-1.2,0.4v6.8l-6.5-6.5h-1.5v-0.2c0-10-8.2-18.2-18.2-18.2h-6
		c1.7-6.2,7.3-10.6,14-10.6h14.7c8,0,14.6,6.6,14.6,14.6C78.3,38.7,74.3,44.2,68.4,46.1L68.4,46.1z"/>
</g>
</svg>
