<?xml version="1.0" encoding="utf-8"?>
<!-- Generator: Adobe Illustrator 27.2.0, SVG Export Plug-In . SVG Version: 6.00 Build 0)  -->
<svg version="1.1" id="Calque_1" xmlns="http://www.w3.org/2000/svg" xmlns:xlink="http://www.w3.org/1999/xlink" x="0px" y="0px"
	 viewBox="0 0 88 88" style="enable-background:new 0 0 88 88;" xml:space="preserve">
<style type="text/css">
	.st0{fill:#FFFFFF;}
	.st1{fill-rule:evenodd;clip-rule:evenodd;fill:#F6C142;}
</style>
<circle class="st0" cx="44" cy="44" r="44"/>
<g>
	<path class="st1" d="M34.7,54.6c0.1,0.6,0.2,1.2,0.3,1.8l0,0c-1.2,0.3-2.3,0.6-3.5,0.9c0-0.1,0-0.2,0-0.3c0-0.3-0.1-0.6-0.1-0.8
		c-0.1-1.5-0.3-3-0.4-4.5c-0.3-2.7-0.5-5.5-0.8-8.2c-0.2-2.4-0.5-4.9-0.7-7.3c-0.6-5.5-1.1-11-1.6-16.5c-0.3-2.8-1.3-5-3.8-6.3
		c-0.4-0.2-0.8-0.4-1.1-0.7c-0.2-0.1-0.4-0.2-0.6-0.3c-0.5-0.3-1-0.6-1.5-0.9c-1.3-0.8-2.5-1.6-3.8-2.3c-2.3-1.4-5.1-1-6.6,0.8
		C8.5,12,9.1,15,11.6,16.5c1.9,1.1,3.8,2.3,5.7,3.5c0.3,0.2,0.6,0.4,0.9,0.6c1,0.6,1.7,1.5,1.8,2.8c0.4,3.7,0.7,7.3,1.1,11
		c0.2,1.8,0.4,3.6,0.5,5.4c0.3,2.7,0.5,5.5,0.8,8.2c0.4,4.1,0.8,8.2,1.2,12.3c0.1,1,0.2,1.9,0.3,2.9c0.2,1.8,0.4,3.6,0.5,5.4
		c0.4,5.1,3.3,9.1,8,10.7c5.2,1.8,11.6-0.9,13.9-6c0.2-0.5,0.5-0.7,1-0.8c2.1-0.4,4.2-0.8,6.2-1.2c0.6-0.1,1.3-0.2,1.9-0.4
		c1.6-0.3,3.1-0.6,4.7-0.9c4.9-1,9.9-1.9,14.8-2.9c1.9-0.4,3.3-2,3.4-4c0.1-2.2-1.1-4.1-2.9-4.8c-1.2-0.5-2.3-0.2-3.4,0
		c-0.1,0-0.3,0.1-0.4,0.1c-0.7,0.1-1.5,0.3-2.2,0.4c-0.5,0.1-1,0.2-1.5,0.3c0-0.1,0-0.1,0-0.2c0-0.1-0.1-0.3-0.1-0.4
		c-1.7-8.7-3.4-17.5-5-26.2l0,0c-0.2-1.3-0.8-1.7-2.1-1.5c-9.3,1.8-18.7,3.7-28,5.5c-1.3,0.3-1.7,0.8-1.4,2.2
		c0.4,2.1,0.8,4.2,1.2,6.4c0.4,2.1,0.8,4.2,1.2,6.4C34.3,52.4,34.5,53.5,34.7,54.6z M64.9,56.9c0.1,0,0.1,0,0.2,0l0,0
		c0.2,0.9,0.3,1.8,0.5,2.7c-0.8,0.2-1.7,0.3-2.5,0.5c-0.7,0.1-1.4,0.3-2.1,0.4c-1.4,0.3-2.7,0.5-4.1,0.8c-3.1,0.6-6.3,1.3-9.4,1.9
		c-0.5,0.1-0.8,0-1-0.5c-1.7-3.4-4.4-5.4-8.1-6.2c-0.3-0.1-0.6-0.4-0.7-0.6c-0.9-4.7-1.8-9.5-2.8-14.2c-0.1-0.8-0.3-1.5-0.4-2.3
		c0-0.1,0-0.2,0-0.3c0-0.1,0-0.1,0-0.2c1.4-0.3,2.8-0.6,4.3-0.8c1.3-0.3,2.5-0.5,3.8-0.8c0.1,0.6,0.2,1.2,0.3,1.7
		c0.1,0.7,0.3,1.5,0.4,2.2c0.1,0.5,0.2,1,0.3,1.5c0.2,1.2,0.5,2.4,0.7,3.6c0.2,1.1,0.8,1.5,1.9,1.3c2.2-0.4,4.4-0.9,6.6-1.3
		c1.1-0.2,1.5-0.8,1.3-1.9c-0.5-2.4-0.9-4.8-1.4-7.2c-0.1-0.6-0.2-1.2-0.3-1.8c2.7-0.5,5.4-1.1,8.1-1.6c0.5,2.5,1,4.9,1.4,7.4
		c0.8,4.3,1.7,8.6,2.5,13c-0.4,0.1-0.8,0.2-1.2,0.2c-1.2,0.2-2.3,0.5-3.4,0.7c-0.9,0.2-1.8,0.3-2.7,0.5c-1.2,0.2-2.5,0.5-3.7,0.7
		c-1,0.2-1.5,0.8-1.3,1.6c0.2,0.9,0.8,1.3,1.9,1.1c2.4-0.5,4.7-0.9,7.1-1.4c1.1-0.2,2.1-0.4,3.2-0.6C64.5,57,64.7,57,64.9,56.9z
		 M26.7,61.3c0.2-0.2,0.4-0.4,0.6-0.6c0.4-0.5,0.9-0.9,1.2-1.4c0.2-0.3,0.4-0.7,0.4-1c-0.2-2.3-0.4-4.6-0.7-6.9
		c0-0.3-0.1-0.6-0.1-0.9c-0.4-3.5-0.7-7-1.1-10.5c-0.7-7-1.4-14-2.1-21c-0.1-1.4-0.8-2.4-1.9-3.1c-1.4-0.8-2.7-1.7-4.1-2.5
		c-1.1-0.7-2.2-1.4-3.3-2c-0.7-0.4-1.5-0.7-2.3-0.4c-0.6,0.2-1.2,0.6-1.3,1.3c-0.1,0.8,0.3,1.3,0.9,1.6c1.1,0.6,2.1,1.3,3.2,2
		c1.2,0.7,2.3,1.4,3.5,2.1c1.9,1.2,3,2.8,3.2,5.1c0.3,2.7,0.5,5.4,0.8,8.1c0.2,1.8,0.4,3.7,0.6,5.5l0,0c0.7,7.2,1.4,14.4,2.2,21.6
		c0.1,0.7,0.1,1.3,0.2,2C26.6,60.8,26.6,61,26.7,61.3z M27.5,67.2c0.4-4.5,4.6-8.4,9-8l0,0c5.3,0.1,9.1,4.7,8.6,9.8
		c-0.4,4.7-4.5,8.5-9.6,8C30.7,76.5,27,72.4,27.5,67.2z M47.8,69.6c0.1,0,0.2,0,0.3,0c0.2,0,0.4-0.1,0.6-0.1
		c5.6-1.1,11.3-2.2,16.9-3.3c0.9-0.2,1.9-0.4,2.8-0.5c2.1-0.4,4.2-0.8,6.3-1.2c1-0.2,1.5-1.2,1.3-2.2c-0.2-1.1-1.1-1.6-2.1-1.4
		c-3.7,0.8-7.5,1.5-11.2,2.2c-3.7,0.7-7.5,1.5-11.2,2.2c-1.1,0.2-2.2,0.5-3.3,0.7L47.8,66V69.6z M49.7,35.9c0.5,2.6,1,5.2,1.5,7.9h0
		c-0.3,0.1-0.6,0.1-1,0.2c-1,0.2-2,0.4-3,0.6c-0.2,0-0.5-0.2-0.5-0.4c-0.5-2.2-0.9-4.4-1.3-6.7c0-0.2-0.1-0.4-0.1-0.5
		c0,0,0-0.1,0-0.1c0,0,0-0.1,0-0.1c0.7-0.1,1.4-0.3,2-0.4C48.2,36.2,49,36.1,49.7,35.9z M42.6,68.2c0.1-3-2.2-6.3-6.3-6.5v0
		c-3.3-0.2-6.3,2.7-6.4,6.3c-0.2,3.5,2.6,6.5,6.2,6.6C39.3,74.6,42.5,72.2,42.6,68.2z M39.9,68.1c0,2.1-1.6,3.6-3.7,3.6
		c-2,0-3.6-1.7-3.6-3.7c0-1.9,1.7-3.6,3.6-3.7C38.3,64.4,39.9,66,39.9,68.1z"/>
</g>
</svg>
