<?xml version="1.0" encoding="utf-8"?>
<!-- Generator: Adobe Illustrator 27.2.0, SVG Export Plug-In . SVG Version: 6.00 Build 0)  -->
<svg version="1.1" id="Calque_1" xmlns="http://www.w3.org/2000/svg" xmlns:xlink="http://www.w3.org/1999/xlink" x="0px" y="0px"
	 viewBox="0 0 88 88" style="enable-background:new 0 0 88 88;" xml:space="preserve">
<style type="text/css">
	.st0{fill:#FFFFFF;}
	.st1{fill-rule:evenodd;clip-rule:evenodd;fill:#F6C142;}
</style>
<circle class="st0" cx="44" cy="44" r="44"/>
<g>
	<path class="st1" d="M43.4,20.4c0.7,0.3,1.4,0.1,2.2-0.6v0c0-0.1,0.1-0.1,0.1-0.2c0.1-0.2,0.3-0.5,0.3-0.8c0-1.8,0.1-3.7,0-5.5
		c0-1-0.9-1.8-1.9-1.8c-1,0-1.8,0.8-1.9,1.8c0,1.8,0,3.6,0,5.4C42.1,19.5,42.6,20.1,43.4,20.4z M56.7,25.4c0.3,0.7,0.9,1.1,1.8,1.2
		v0c0.1-0.1,0.3-0.1,0.4-0.2l0,0c0.3-0.1,0.6-0.3,0.8-0.5c1.3-1.2,2.5-2.5,3.7-3.7c0.7-0.7,0.7-1.9,0-2.6c-0.7-0.7-1.9-0.9-2.6-0.1
		c-1.3,1.3-2.6,2.6-3.8,3.9C56.4,23.9,56.4,24.7,56.7,25.4z M31.5,24.3c0,1-0.4,1.7-1.1,2c-0.7,0.3-1.5,0.3-2.1-0.3
		c-1.3-1.2-2.5-2.5-3.8-3.8c-0.7-0.7-0.7-1.9,0-2.6c0.7-0.7,1.9-0.8,2.6-0.1c1.3,1.3,2.6,2.6,3.8,3.9c0.2,0.2,0.3,0.5,0.4,0.8
		C31.5,24.2,31.5,24.3,31.5,24.3L31.5,24.3z M35.1,63.8L35.1,63.8L35.1,63.8L35.1,63.8L35.1,63.8L35.1,63.8L35.1,63.8
		c0-0.7,0-1.5,0-2.2c0.1-2-0.5-3.8-1.5-5.5c-0.8-1.2-1.6-2.4-2.4-3.6l0,0c-1.9-2.7-3.3-5.5-3.9-8.8c-1.1-5.7,0.1-10.9,4.2-15.2
		c8.7-9,22.5-6.2,27.9,3.6c1.6,2.9,2.1,6,1.9,9.2c-0.3,3.9-1.6,7.3-3.8,10.5c-0.5,0.8-1.1,1.6-1.6,2.3c-0.3,0.5-0.6,0.9-0.9,1.4
		c-1.3,2-2,4.1-2,6.5c0.1,1.6,0,3.2,0,4.8c0,0.6,0,1.3,0,1.9c0,2.5-1.7,4.4-4.2,4.7c-0.3,0-0.3,0.1-0.4,0.4
		c-0.2,0.6-0.5,1.2-0.8,1.7c-0.5,0.8-1.2,1.3-2.3,1.2c-0.6-0.1-1.3-0.1-1.9,0c-0.4,0-0.8,0-1.2,0c-0.3,0-0.6-0.1-0.8-0.3
		c-0.9-0.6-1.4-1.5-1.7-2.6c-0.1-0.3-0.2-0.4-0.5-0.4c-2.4-0.2-4.1-2.1-4.1-4.6c0-0.9,0-1.7,0-2.6v0c0-0.4,0-0.9,0-1.3l0,0
		C35.1,64.5,35.1,64.1,35.1,63.8L35.1,63.8L35.1,63.8L35.1,63.8L35.1,63.8z M44,59.1h4.8c0.2,0,0.4,0,0.5-0.3c0.4-2.2,1.4-4.1,2.7-6
		c0.4-0.6,0.8-1.2,1.2-1.7l0,0l0,0l0,0l0,0l0,0c0.5-0.7,1-1.4,1.5-2.2c1.6-2.3,2.5-4.9,2.7-7.7c0.2-3.1-0.4-6-2.2-8.5
		c-4.3-6.1-12.9-7.6-19.1-3.2c-3.6,2.6-5.5,6.1-5.5,10.7c0,3,0.8,5.9,2.5,8.4c0.6,0.9,1.2,1.8,1.8,2.7v0c0.4,0.5,0.7,1.1,1.1,1.6
		c1.2,1.8,2.2,3.6,2.6,5.7c0.1,0.5,0.3,0.6,0.7,0.6c1.1,0,2.3,0,3.4,0C43.2,59.1,43.6,59.1,44,59.1L44,59.1z M49.1,63H38.9v1.2h10.1
		V63z M39,68.2c-0.2,1,0,1.3,1,1.3h8.2c0.9,0,1.2-0.4,0.9-1.3H39z M20.2,41.1L20.2,41.1c-0.5,0-1.1,0-1.6,0c-1.1,0-2-0.8-2-1.9
		c0-1.1,0.8-2,2-2c1.6,0,3.3,0,4.9,0c1.2,0,2,0.9,2,2c0,1.1-0.9,1.9-2,1.9c-0.5,0-1.1,0-1.6,0h0h0h0h0h0h0h0c-0.3,0-0.5,0-0.8,0l0,0
		C20.8,41.1,20.5,41.1,20.2,41.1L20.2,41.1L20.2,41.1L20.2,41.1L20.2,41.1z M66.1,41.1L66.1,41.1L66.1,41.1L66.1,41.1L66.1,41.1
		c0.3,0,0.5,0,0.8,0c0.3,0,0.6,0,0.8,0h0h0h0h0c0.6,0,1.1,0,1.7,0c1.1,0,2-0.8,2-1.9c0-1.1-0.8-1.9-2-1.9c-1.7,0-3.3,0-5,0
		c-1.1,0-2,0.8-2,1.9c0,1.1,0.8,1.9,2,1.9C65,41.1,65.5,41.1,66.1,41.1L66.1,41.1z M40.9,28.8c1,0,1.6,0.6,1.8,1.6
		c0.2,0.9-0.3,1.8-1.2,2.2c-1.4,0.6-2.6,1.4-3.6,2.6c-1,1.2-1.7,2.6-2,4.1c-0.1,0.3-0.1,0.6-0.3,0.8c-0.4,0.8-1.5,1.2-2.3,0.9
		c-0.9-0.3-1.5-1.3-1.3-2.3c0.7-3.4,2.4-6.2,5.2-8.2c0.6-0.4,1.3-0.8,2.1-1.1c0.2-0.1,0.3-0.2,0.5-0.2c0.2-0.1,0.4-0.2,0.7-0.2h0
		C40.7,28.8,40.8,28.8,40.9,28.8L40.9,28.8z"/>
</g>
</svg>
