<svg width="152" height="152" viewBox="0 0 152 152" fill="none" xmlns="http://www.w3.org/2000/svg">
<path fill-rule="evenodd" clip-rule="evenodd" d="M60.49 75.4417C60.5268 75.373 60.5612 75.3098 60.5935 75.2505L60.5936 75.2504C60.6739 75.1029 60.7412 74.9794 60.7999 74.8533C61.4317 73.5105 62.063 72.1676 62.6943 70.8248L62.696 70.8212C64.1061 67.8216 65.516 64.8225 66.9306 61.8245C67.0807 61.5073 67.1098 61.2773 66.8894 60.9528C62.9403 55.149 65.3374 47.3913 71.8966 44.7957C72.4293 44.585 72.5794 44.3308 72.5601 43.7932C72.5255 42.8635 72.5353 41.9337 72.545 41.0026C72.5469 40.8231 72.5488 40.6436 72.5504 40.464C72.5601 39.5076 73.0564 39.0137 74.0128 39.0064C75.2041 38.9991 76.3929 38.9967 77.5842 39.0064C78.4946 39.0137 79.0127 39.5124 79.0321 40.4301C79.0563 41.5584 79.066 42.6916 79.0273 43.8199C79.0103 44.3356 79.1556 44.5802 79.6616 44.7908C83.3614 46.3235 85.6809 49.0498 86.4267 53.0038C86.9594 55.8294 86.3226 58.4565 84.7391 60.8439C84.4969 61.2095 84.4703 61.4782 84.6592 61.8777C86.2043 65.1369 87.7369 68.4016 89.2697 71.6666L89.2712 71.6698C89.7603 72.7116 90.2494 73.7535 90.739 74.7952C90.7902 74.9049 90.8458 75.012 90.9122 75.1399C90.9558 75.2237 91.004 75.3165 91.0586 75.4248C91.2251 75.2961 91.3875 75.1716 91.5469 75.0495L91.5471 75.0493L91.5475 75.0489C91.8258 74.8356 92.095 74.6292 92.3612 74.4199C93.5985 73.4466 95.0367 73.5265 95.981 74.6257C96.9108 75.7056 96.7704 77.1971 95.5864 78.2213C95.0832 78.6576 94.5501 79.0592 94.0037 79.4709L94.0035 79.4711C93.7585 79.6556 93.5108 79.8422 93.2619 80.0349L93.3549 80.2342C93.4631 80.4666 93.5734 80.7035 93.6881 80.9404C94.0285 81.6461 94.3681 82.3522 94.7077 83.0583L94.709 83.061C95.5574 84.8251 96.4059 86.5892 97.2667 88.3471C97.7365 89.3059 97.9035 90.2648 97.6929 91.3325C97.3198 93.2219 97.0018 95.1212 96.6838 97.0196L96.5791 97.6448C96.4798 98.2307 96.2982 98.7174 95.6324 98.7925C94.9956 98.8627 94.7123 98.439 94.475 97.9281C92.291 93.2066 90.0998 88.4875 87.9085 83.7709C87.8303 83.605 87.7501 83.439 87.6704 83.2745L87.6701 83.2737C87.629 83.1888 87.5881 83.1043 87.5477 83.0203C87.1347 83.1315 86.7273 83.2481 86.3228 83.364L86.3227 83.364C85.4327 83.6188 84.557 83.8696 83.6664 84.0493C82.1483 84.3568 80.6084 84.5699 79.0684 84.7564C78.5842 84.8145 78.4437 84.9743 78.4776 85.4222C78.5043 85.7636 78.4946 86.1098 78.4704 86.4512C78.376 87.7854 77.2452 88.8289 75.9353 88.8047C74.6109 88.7805 73.5407 87.7127 73.4898 86.3641V86.243L73.4898 86.2425C73.4656 84.8387 73.4654 84.829 72.0976 84.6861C69.502 84.4174 66.9693 83.8581 64.4561 82.9622C64.4187 83.0355 64.382 83.1065 64.346 83.1761C64.2583 83.3457 64.1749 83.5068 64.0977 83.6716C63.5474 84.8428 62.9978 86.0144 62.4482 87.1858L62.4464 87.1898C60.7526 90.8 59.059 94.4101 57.3448 98.0104C57.185 98.3445 56.8145 98.6787 56.4658 98.7997C55.9864 98.9692 55.4828 98.5625 55.3811 98.0031C55.2876 97.4829 55.1922 96.9627 55.0968 96.4424C54.7375 94.4834 54.3779 92.523 54.1196 90.5505C54.0155 89.7587 54.2141 88.8386 54.5385 88.0929C55.5495 85.7662 56.6478 83.4752 57.7454 81.1858L58.0881 80.4707C58.2988 80.0324 58.231 79.8194 57.8314 79.553C57.1462 79.093 56.4876 78.5869 55.8678 78.0422C54.8388 77.1342 54.725 75.6863 55.5506 74.6742C56.3714 73.6645 57.9065 73.4708 58.9864 74.2577C59.3335 74.5109 59.6677 74.7815 60.0166 75.0638C60.1715 75.1893 60.3293 75.317 60.4924 75.4466L60.49 75.4417ZM85.2136 78.5046C85.1872 78.4351 85.1633 78.3693 85.1405 78.3065L85.1405 78.3064C85.0902 78.1679 85.0451 78.0434 84.9884 77.9235C84.5128 76.8979 84.0366 75.8722 83.5605 74.8465C82.1437 71.7945 80.7265 68.7418 79.3202 65.6864C79.1459 65.3063 78.9571 65.2675 78.5745 65.3595C76.7828 65.7978 74.9765 65.8293 73.1847 65.3716C72.7368 65.2578 72.5552 65.3498 72.3663 65.7566C70.9518 68.7769 69.5263 71.7903 68.1001 74.8052L68.0991 74.8073L68.0985 74.8085C67.6285 75.8022 67.1583 76.7961 66.6885 77.7904C66.6256 77.9228 66.5712 78.06 66.5091 78.2161L66.5091 78.2163C66.4827 78.2828 66.4549 78.3527 66.4245 78.4271C68.6957 79.2141 70.9402 79.6693 73.3252 79.8654C73.3252 79.7162 73.3246 79.5777 73.324 79.4462V79.4456C73.323 79.2016 73.322 78.9814 73.3252 78.7613C73.3542 77.2407 74.4172 76.1415 75.8433 76.1511C77.2404 76.1608 78.2815 77.2504 78.3154 78.7468C78.3202 78.9783 78.3187 79.2108 78.3171 79.4607C78.3163 79.5924 78.3154 79.7289 78.3154 79.8726C80.7222 79.7249 82.9473 79.2213 85.2088 78.4998L85.2136 78.5046ZM75.8264 59.2095C78.2198 59.2082 80.1168 57.2935 80.1047 54.8948C80.0926 52.5292 78.1847 50.6382 75.8191 50.643C73.4487 50.6479 71.5576 52.5389 71.548 54.9093C71.5383 57.3403 73.4002 59.2119 75.8264 59.2095ZM101.971 109.204H107.765V98.7949H100.058C100.106 98.5176 100.152 98.2445 100.197 97.9746C100.357 97.0239 100.51 96.1143 100.683 95.209C100.705 95.1 100.937 94.9572 101.071 94.9547C101.472 94.9531 101.873 94.9512 102.274 94.9494C104.778 94.9378 107.283 94.9262 109.787 94.9596C110.925 94.9741 111.717 95.8966 111.724 97.1048C111.735 98.618 111.733 100.131 111.731 101.644C111.73 102.25 111.729 102.855 111.729 103.461C111.729 104.288 111.729 105.115 111.73 105.942C111.73 107.597 111.731 109.252 111.729 110.906C111.727 112.39 110.976 113.143 109.494 113.143H42.2457C40.7518 113.143 40.0061 112.402 40.0036 110.916C39.9988 106.335 39.9988 101.756 40.0036 97.1751C40.0036 95.6932 40.7615 94.9475 42.2482 94.9451C43.0431 94.9443 43.8382 94.9453 44.6334 94.9463C46.522 94.9486 48.411 94.951 50.2989 94.9305C50.817 94.9257 50.9938 95.0806 51.0567 95.5843C51.1516 96.3224 51.2821 97.0569 51.4184 97.8244L51.4185 97.8245C51.4735 98.1345 51.5296 98.4499 51.5846 98.7731H43.8825V109.274H49.2941C49.2941 108.919 49.2938 108.566 49.2935 108.215L49.2935 108.213V108.213C49.293 107.514 49.2924 106.821 49.2941 106.129L49.2938 106.03C49.2928 105.78 49.2918 105.526 49.3473 105.286C49.5677 104.323 50.5023 103.671 51.4708 103.78C52.432 103.887 53.1657 104.666 53.1875 105.664C53.2042 106.483 53.2001 107.301 53.196 108.134C53.1942 108.508 53.1923 108.886 53.1923 109.267H59.0324C59.0324 108.92 59.0321 108.577 59.0319 108.236V108.235V108.234C59.0313 107.559 59.0308 106.894 59.0324 106.228C59.0324 106.19 59.0322 106.151 59.0321 106.112V106.112C59.0309 105.868 59.0297 105.621 59.0736 105.383C59.2528 104.415 60.1535 103.717 61.1244 103.773C62.1292 103.831 62.9186 104.633 62.95 105.683C62.9697 106.34 62.9661 106.996 62.9624 107.652C62.9607 107.964 62.9589 108.277 62.9597 108.589V109.274H68.795V107.359C68.795 107.19 68.7937 107.021 68.7924 106.851V106.851C68.7893 106.455 68.7863 106.059 68.7998 105.664C68.841 104.572 69.686 103.766 70.7586 103.771C71.8361 103.775 72.6593 104.584 72.6932 105.686C72.7052 106.098 72.7027 106.511 72.7002 106.924C72.6991 107.096 72.6981 107.269 72.6981 107.441V109.255C72.7565 109.261 72.8127 109.268 72.8672 109.275L72.8673 109.276C72.9979 109.292 73.1192 109.308 73.2404 109.308C73.7651 109.31 74.2898 109.308 74.8144 109.307C75.8636 109.304 76.9128 109.302 77.9619 109.323C78.4656 109.332 78.5745 109.148 78.56 108.693C78.537 107.974 78.5428 107.255 78.5486 106.537C78.5502 106.347 78.5517 106.158 78.5527 105.969C78.56 104.662 79.3687 103.763 80.5309 103.771C81.6786 103.778 82.4607 104.652 82.4655 105.942C82.4687 106.663 82.4677 107.386 82.4666 108.123V108.127C82.466 108.5 82.4655 108.877 82.4655 109.26H88.2984C88.2984 108.901 88.2974 108.543 88.2965 108.185C88.2945 107.379 88.2924 106.575 88.3008 105.771C88.3129 104.698 89.0344 103.884 90.0368 103.78C91.2063 103.659 92.17 104.499 92.1966 105.703C92.2208 106.732 92.216 107.761 92.1966 108.79C92.1893 109.175 92.3031 109.325 92.7075 109.32C94.3201 109.301 95.935 109.303 97.55 109.32C97.9423 109.325 98.0803 109.199 98.0706 108.8C98.0464 107.812 98.0561 106.821 98.0658 105.834C98.0755 104.601 98.8866 103.761 100.037 103.771C101.15 103.783 101.954 104.628 101.964 105.819C101.97 106.552 101.968 107.286 101.966 108.036V108.037L101.966 108.039C101.965 108.42 101.964 108.806 101.964 109.199L101.971 109.204ZM61.2043 98.7658H90.4872L90.4896 98.7633C90.3366 98.438 90.1877 98.119 90.0413 97.8052C89.6176 96.8975 89.2139 96.0327 88.7875 95.1799C88.7197 95.0418 88.4243 94.9523 88.2354 94.9523C84.0999 94.9474 79.9638 94.9456 75.8276 94.9438C71.6915 94.942 67.5553 94.9401 63.4198 94.9353C63.0542 94.9353 62.8774 95.0709 62.737 95.3857C62.5067 95.902 62.2661 96.4127 62.0257 96.923C61.8794 97.2335 61.7331 97.5439 61.5893 97.8554C61.498 98.0516 61.4161 98.2514 61.3263 98.4704C61.2876 98.5648 61.2474 98.6629 61.2043 98.7658Z" fill="#F6C142"/>
<circle cx="76" cy="76" r="75.5" stroke="#F6C142"/>
</svg>
