<svg width="152" height="152" viewBox="0 0 152 152" fill="none" xmlns="http://www.w3.org/2000/svg">
<circle cx="76" cy="76" r="75.5" stroke="#F6C142"/>
<path d="M55.1654 48L44 68.3905L76.5 104L109 68.2913L97.8346 48H55.1654ZM93.8447 51.9775L88.3615 65.6054L79.7886 51.9792H93.8447V51.9775ZM83.8761 65.9031H69.0227L76.4006 54.0663L83.8779 65.9031H83.8761ZM73.1085 51.9775L64.635 65.5045L59.253 51.9775H73.1103H73.1085ZM56.0621 54.6634L60.5475 65.9031H49.881L56.0621 54.6634ZM50.9784 69.8823H62.142L70.7149 91.3678L50.9766 69.8823H50.9784ZM76.5 95.7439L66.432 70.2792L66.5314 69.8806H86.3692L86.4686 70.2792L86.568 70.3784L76.5 95.7439ZM82.381 91.467L90.9539 69.9815H102.02L82.381 91.467ZM92.5503 65.9031L97.0356 54.7626L103.217 65.9031H92.5503Z" fill="#F6C142"/>
</svg>
