<?xml version="1.0" encoding="utf-8"?>
<!-- Generator: Adobe Illustrator 27.2.0, SVG Export Plug-In . SVG Version: 6.00 Build 0)  -->
<svg version="1.1" id="Calque_1" xmlns="http://www.w3.org/2000/svg" xmlns:xlink="http://www.w3.org/1999/xlink" x="0px" y="0px"
	 viewBox="0 0 88 88" style="enable-background:new 0 0 88 88;" xml:space="preserve">
<style type="text/css">
	.st0{fill:#FFFFFF;}
	.st1{fill-rule:evenodd;clip-rule:evenodd;fill:#F6C142;}
</style>
<circle class="st0" cx="44" cy="44" r="44"/>
<g>
	<path class="st1" d="M71.1,16.3l-9,5.2l-0.5,6.1l9-5.2L71.1,16.3z M72.9,26.3l-9,5.2l5.5,2.7l9-5.2L72.9,26.3z M25.2,45.8
		c0,5.6,4.5,10.1,10,10.1l0,0c5.5,0,10-4.5,10-10.1c0-0.2,0-0.4,0-0.5l4.3-2.5c0.2,1,0.3,2,0.3,3.1c0,8.1-6.6,14.8-14.6,14.8
		c-8.1,0-14.6-6.6-14.6-14.8c0-8.1,6.6-14.8,14.6-14.8c3.6,0,7,1.3,9.6,3.7l-4.3,2.5c-1.6-1-3.4-1.5-5.3-1.5
		C29.7,35.7,25.2,40.2,25.2,45.8z M35.3,19.9c-6.8,0-13.3,2.7-18.1,7.6c-4.8,4.9-7.5,11.4-7.5,18.3s2.7,13.4,7.5,18.3
		c4.8,4.9,11.3,7.6,18.1,7.6c6.8,0,13.3-2.7,18.1-7.6c4.8-4.9,7.5-11.4,7.5-18.3c0-3-0.5-6-1.5-8.8l-4.1,2.4c0.6,2.1,1,4.2,1,6.4
		c0,5.7-2.2,11-6.2,15c-4,4-9.2,6.2-14.9,6.2c-5.6,0-10.9-2.2-14.9-6.2c-4-4-6.2-9.4-6.2-15s2.2-11,6.2-15c4-4,9.2-6.2,14.9-6.2
		c5.6,0,11.4,2.5,15.4,6.8l4.1-2.4C49.8,23.2,42.8,19.9,35.3,19.9z M37.3,42.7l33.7-19.7v0l1.6,2.7L38.9,45.4l0,0.4
		c0,2-1.6,3.7-3.6,3.7c-2,0-3.6-1.6-3.6-3.7c0-2,1.6-3.7,3.6-3.7c0.6,0,1.2,0.2,1.7,0.4L37.3,42.7z"/>
</g>
</svg>
